<svg xmlns="http://www.w3.org/2000/svg" viewBox="0 0 100 100">
  <!-- Body -->
  <ellipse cx="50" cy="60" rx="30" ry="25" fill="#FF9800"/>
  <!-- Head -->
  <circle cx="50" cy="35" r="22" fill="#FF9800"/>
  <!-- Ears -->
  <polygon points="32,20 38,35 26,35" fill="#FF9800"/>
  <polygon points="68,20 74,35 62,35" fill="#FF9800"/>
  <polygon points="34,22 38,32 30,32" fill="#FFE0B2"/>
  <polygon points="66,22 70,32 62,32" fill="#FFE0B2"/>
  <!-- Eyes -->
  <ellipse cx="42" cy="32" rx="5" ry="6" fill="#FFF"/>
  <ellipse cx="58" cy="32" rx="5" ry="6" fill="#FFF"/>
  <circle cx="43" cy="33" r="3" fill="#333"/>
  <circle cx="59" cy="33" r="3" fill="#333"/>
  <!-- Nose -->
  <ellipse cx="50" cy="42" rx="4" ry="3" fill="#FF5722"/>
  <!-- Mouth -->
  <path d="M46,46 Q50,50 54,46" stroke="#333" stroke-width="2" fill="none"/>
  <!-- Whiskers -->
  <line x1="25" y1="40" x2="38" y2="42" stroke="#333" stroke-width="1"/>
  <line x1="25" y1="45" x2="38" y2="45" stroke="#333" stroke-width="1"/>
  <line x1="75" y1="40" x2="62" y2="42" stroke="#333" stroke-width="1"/>
  <line x1="75" y1="45" x2="62" y2="45" stroke="#333" stroke-width="1"/>
</svg>
