<svg xmlns="http://www.w3.org/2000/svg" viewBox="0 0 100 100">
  <!-- Body -->
  <ellipse cx="55" cy="55" rx="32" ry="25" fill="#FAFAFA"/>
  <!-- Spots -->
  <ellipse cx="45" cy="50" rx="10" ry="8" fill="#333"/>
  <ellipse cx="70" cy="60" rx="8" ry="10" fill="#333"/>
  <circle cx="60" cy="45" r="6" fill="#333"/>
  <!-- Head -->
  <circle cx="25" cy="40" r="18" fill="#FAFAFA"/>
  <!-- Horns -->
  <ellipse cx="15" cy="22" rx="4" ry="8" fill="#FFC107" transform="rotate(-20 15 22)"/>
  <ellipse cx="35" cy="22" rx="4" ry="8" fill="#FFC107" transform="rotate(20 35 22)"/>
  <!-- Ears -->
  <ellipse cx="10" cy="35" rx="6" ry="4" fill="#FFCDD2"/>
  <ellipse cx="40" cy="35" rx="6" ry="4" fill="#FFCDD2"/>
  <!-- Snout -->
  <ellipse cx="25" cy="48" rx="10" ry="8" fill="#FFCDD2"/>
  <!-- Nostrils -->
  <circle cx="22" cy="48" r="2" fill="#333"/>
  <circle cx="28" cy="48" r="2" fill="#333"/>
  <!-- Eyes -->
  <circle cx="18" cy="38" r="4" fill="#333"/>
  <circle cx="32" cy="38" r="4" fill="#333"/>
  <!-- Legs -->
  <rect x="35" y="72" width="8" height="18" fill="#FAFAFA"/>
  <rect x="55" y="72" width="8" height="18" fill="#FAFAFA"/>
  <rect x="72" y="72" width="8" height="18" fill="#FAFAFA"/>
</svg>
