<svg xmlns="http://www.w3.org/2000/svg" viewBox="0 0 100 100">
  <!-- Body -->
  <ellipse cx="55" cy="55" rx="30" ry="22" fill="#8D6E63"/>
  <!-- Head -->
  <ellipse cx="25" cy="35" rx="18" ry="15" fill="#8D6E63"/>
  <!-- Neck -->
  <polygon points="35,45 45,60 55,50 40,35" fill="#8D6E63"/>
  <!-- Ears -->
  <polygon points="20,18 25,28 30,18" fill="#8D6E63"/>
  <!-- Eye -->
  <circle cx="20" cy="32" r="4" fill="#333"/>
  <circle cx="21" cy="31" r="1" fill="#FFF"/>
  <!-- Nostril -->
  <circle cx="12" cy="38" r="2" fill="#5D4037"/>
  <!-- Mane -->
  <path d="M28,20 Q35,25 30,35 Q38,30 35,45" stroke="#5D4037" stroke-width="4" fill="none"/>
  <!-- Legs -->
  <rect x="35" y="70" width="6" height="20" fill="#8D6E63"/>
  <rect x="50" y="70" width="6" height="20" fill="#8D6E63"/>
  <rect x="65" y="70" width="6" height="20" fill="#8D6E63"/>
  <rect x="75" y="70" width="6" height="20" fill="#8D6E63"/>
  <!-- Tail -->
  <path d="M85,55 Q95,60 90,75" stroke="#5D4037" stroke-width="5" fill="none"/>
</svg>
