<svg xmlns="http://www.w3.org/2000/svg" viewBox="0 0 100 100">
  <ellipse cx="50" cy="55" rx="25" ry="20" fill="#9E9E9E"/>
  <ellipse cx="50" cy="40" rx="18" ry="16" fill="#9E9E9E"/>
  <circle cx="35" cy="28" r="12" fill="#9E9E9E"/>
  <circle cx="65" cy="28" r="12" fill="#9E9E9E"/>
  <circle cx="35" cy="28" r="8" fill="#FFCDD2"/>
  <circle cx="65" cy="28" r="8" fill="#FFCDD2"/>
  <circle cx="44" cy="38" r="4" fill="#333"/>
  <circle cx="56" cy="38" r="4" fill="#333"/>
  <circle cx="45" cy="37" r="1.5" fill="#FFF"/>
  <circle cx="57" cy="37" r="1.5" fill="#FFF"/>
  <circle cx="50" cy="48" r="4" fill="#FFCDD2"/>
  <line x1="30" y1="45" x2="15" y2="42" stroke="#9E9E9E" stroke-width="2"/>
  <line x1="30" y1="48" x2="15" y2="50" stroke="#9E9E9E" stroke-width="2"/>
  <line x1="70" y1="45" x2="85" y2="42" stroke="#9E9E9E" stroke-width="2"/>
  <line x1="70" y1="48" x2="85" y2="50" stroke="#9E9E9E" stroke-width="2"/>
  <path d="M75,60 Q85,65 90,55 Q95,70 85,75" stroke="#FFCDD2" stroke-width="4" fill="none"/>
</svg>
