<svg xmlns="http://www.w3.org/2000/svg" viewBox="0 0 100 100">
  <!-- Body -->
  <ellipse cx="50" cy="55" rx="32" ry="25" fill="#F8BBD9"/>
  <!-- Head -->
  <circle cx="50" cy="35" r="24" fill="#F8BBD9"/>
  <!-- Ears -->
  <ellipse cx="30" cy="18" rx="10" ry="12" fill="#F48FB1" transform="rotate(-20 30 18)"/>
  <ellipse cx="70" cy="18" rx="10" ry="12" fill="#F48FB1" transform="rotate(20 70 18)"/>
  <!-- Snout -->
  <ellipse cx="50" cy="42" rx="14" ry="10" fill="#F48FB1"/>
  <!-- Nostrils -->
  <ellipse cx="45" cy="42" rx="3" ry="4" fill="#EC407A"/>
  <ellipse cx="55" cy="42" rx="3" ry="4" fill="#EC407A"/>
  <!-- Eyes -->
  <circle cx="38" cy="30" r="5" fill="#333"/>
  <circle cx="62" cy="30" r="5" fill="#333"/>
  <circle cx="39" cy="29" r="2" fill="#FFF"/>
  <circle cx="63" cy="29" r="2" fill="#FFF"/>
  <!-- Legs -->
  <rect x="28" y="72" width="10" height="15" rx="3" fill="#F8BBD9"/>
  <rect x="62" y="72" width="10" height="15" rx="3" fill="#F8BBD9"/>
  <!-- Tail -->
  <path d="M82,55 Q90,50 88,60 Q95,55 92,65" stroke="#F48FB1" stroke-width="4" fill="none"/>
</svg>
